After a sudden underwater tremor sets free scores of the prehistoric man-eating fish, an unlikely group of strangers must band together to stop themselves from becoming fish food for the area's new razor-toothed residents


Genre:Action | Horror | Sci-Fi | Thriller
Language:English  http://www.imdb.com/title/tt0464154/
SourceVD5/Audio Studio
Subtitles:Romana

General
Complete name iranha.2010.R5.H264.Feel-Free
Format : MPEG-4
Format profile : Base Media
Codec ID : isom
File size : 940 MiB
Duration : 1h 24mn
Overall bit rate : 1 549 Kbps
Video #2
Codec ID : avc1
Codec ID/Info : Advanced Video Coding
Duration : 1h 24mn
Bit rate mode : Variable
Bit rate : 1 383 Kbps
Width : 720 pixels
Height : 304 pixels
Display aspect ratio : 2.35:1
Frame rate mode : Constant
Frame rate : 25.000 fps
Resolution : 24 bits
Colorimetry : 4:2:0
Scan type : Progressive
Bits/(Pixel*Frame) : 0.253
Stream size : 839 MiB (89%)
Audio #1
ID : 1
Format : AAC
Format/Info : Advanced Audio Codec
Format version : Version 4
Format profile : LC
Format settings, SBR : No
Codec ID : 40
Duration : 1h 24mn
Bit rate mode : Constant
Bit rate : 160 Kbps
Channel(s) : 2 channels
Channel positions : L R
Sampling rate : 48.0 KHz
Resolution : 16 bits
Stream size : 96.8 MiB (10%)